<?xml version="1.0" encoding="UTF-8" standalone="no"?>
<!DOCTYPE svg PUBLIC "-//W3C//DTD SVG 1.1//EN"
 "http://www.w3.org/Graphics/SVG/1.1/DTD/svg11.dtd">
<!-- Generated by graphviz version 2.40.1 (20161225.0304)
 -->
<!-- Title: dependencies Pages: 1 -->
<svg width="504pt" height="284pt"
 viewBox="0.00 0.00 504.00 284.00" xmlns="http://www.w3.org/2000/svg" xmlns:xlink="http://www.w3.org/1999/xlink">
<g id="graph0" class="graph" transform="scale(1 1) rotate(0) translate(4 280)">
<title>dependencies</title>
<polygon fill="#ffffff" stroke="transparent" points="-4,4 -4,-280 500,-280 500,4 -4,4"/>
<text text-anchor="start" x="227.0091" y="-42.4" font-family="sans-serif" font-weight="bold" font-size="14.00" fill="#000000">Legend</text>
<polygon fill="#ffffb3" stroke="transparent" points="14,-10 14,-30 34,-30 34,-10 14,-10"/>
<text text-anchor="start" x="37.629" y="-15.4" font-family="sans-serif" font-size="14.00" fill="#000000"> &#160;Declarations</text>
<polygon fill="#8dd3c7" stroke="transparent" points="127,-10 127,-30 147,-30 147,-10 127,-10"/>
<text text-anchor="start" x="150.7251" y="-15.4" font-family="sans-serif" font-size="14.00" fill="#000000"> &#160;Module</text>
<polygon fill="#80b1d3" stroke="transparent" points="213,-10 213,-30 233,-30 233,-10 213,-10"/>
<text text-anchor="start" x="236.7812" y="-15.4" font-family="sans-serif" font-size="14.00" fill="#000000"> &#160;Bootstrap</text>
<polygon fill="#fdb462" stroke="transparent" points="310,-10 310,-30 330,-30 330,-10 310,-10"/>
<text text-anchor="start" x="333.6732" y="-15.4" font-family="sans-serif" font-size="14.00" fill="#000000"> &#160;Providers</text>
<polygon fill="#fb8072" stroke="transparent" points="406,-10 406,-30 426,-30 426,-10 406,-10"/>
<text text-anchor="start" x="429.7258" y="-15.4" font-family="sans-serif" font-size="14.00" fill="#000000"> &#160;Exports</text>
<g id="clust1" class="cluster">
<title>cluster_DLJsonViewerModule</title>
<polygon fill="none" stroke="#000000" stroke-dasharray="1,5" points="68,-70 68,-268 428,-268 428,-70 68,-70"/>
</g>
<g id="clust2" class="cluster">
<title>cluster_DLJsonViewerModule_declarations</title>
<polygon fill="none" stroke="#000000" points="76,-78 76,-130 420,-130 420,-78 76,-78"/>
</g>
<g id="clust6" class="cluster">
<title>cluster_DLJsonViewerModule_exports</title>
<polygon fill="none" stroke="#000000" points="158,-208 158,-260 338,-260 338,-208 158,-208"/>
</g>
<!-- DataViewerComponent -->
<g id="node1" class="node">
<title>DataViewerComponent</title>
<polygon fill="#ffffb3" stroke="#000000" points="412.4524,-122 263.5476,-122 263.5476,-86 412.4524,-86 412.4524,-122"/>
<text text-anchor="middle" x="338" y="-99.8" font-family="Times,serif" font-size="14.00" fill="#000000">DataViewerComponent</text>
</g>
<!-- DLJsonViewerModule -->
<g id="node3" class="node">
<title>DLJsonViewerModule</title>
<polygon fill="#8dd3c7" stroke="#000000" points="320.2921,-187 317.2921,-191 296.2921,-191 293.2921,-187 175.7079,-187 175.7079,-151 320.2921,-151 320.2921,-187"/>
<text text-anchor="middle" x="248" y="-164.8" font-family="Times,serif" font-size="14.00" fill="#000000">DLJsonViewerModule</text>
</g>
<!-- DataViewerComponent&#45;&gt;DLJsonViewerModule -->
<g id="edge1" class="edge">
<title>DataViewerComponent&#45;&gt;DLJsonViewerModule</title>
<path fill="none" stroke="#000000" d="M291.8348,-122.1061C291.8348,-122.1061 291.8348,-140.991 291.8348,-140.991"/>
<polygon fill="#000000" stroke="#000000" points="288.3349,-140.9909 291.8348,-150.991 295.3349,-140.991 288.3349,-140.9909"/>
</g>
<!-- DlJsonViewerComponent -->
<g id="node2" class="node">
<title>DlJsonViewerComponent</title>
<polygon fill="#ffffb3" stroke="#000000" points="245.9129,-122 84.0871,-122 84.0871,-86 245.9129,-86 245.9129,-122"/>
<text text-anchor="middle" x="165" y="-99.8" font-family="Times,serif" font-size="14.00" fill="#000000">DlJsonViewerComponent</text>
</g>
<!-- DlJsonViewerComponent&#45;&gt;DLJsonViewerModule -->
<g id="edge2" class="edge">
<title>DlJsonViewerComponent&#45;&gt;DLJsonViewerModule</title>
<path fill="none" stroke="#000000" d="M210.7802,-122.1061C210.7802,-122.1061 210.7802,-140.991 210.7802,-140.991"/>
<polygon fill="#000000" stroke="#000000" points="207.2802,-140.9909 210.7802,-150.991 214.2802,-140.991 207.2802,-140.9909"/>
</g>
<!-- DlJsonViewerComponent  -->
<g id="node4" class="node">
<title>DlJsonViewerComponent </title>
<polygon fill="#fb8072" stroke="#000000" points="330.4124,-252 165.5876,-252 165.5876,-216 330.4124,-216 330.4124,-252"/>
<text text-anchor="middle" x="248" y="-229.8" font-family="Times,serif" font-size="14.00" fill="#000000">DlJsonViewerComponent </text>
</g>
<!-- DLJsonViewerModule&#45;&gt;DlJsonViewerComponent  -->
<g id="edge3" class="edge">
<title>DLJsonViewerModule&#45;&gt;DlJsonViewerComponent </title>
<path fill="none" stroke="#000000" stroke-dasharray="5,2" d="M248,-187.1061C248,-187.1061 248,-205.991 248,-205.991"/>
<polygon fill="#000000" stroke="#000000" points="244.5001,-205.9909 248,-215.991 251.5001,-205.991 244.5001,-205.9909"/>
</g>
</g>
</svg>
